<svg xmlns="http://www.w3.org/2000/svg" width="1724" height="525" viewBox="0 0 1724 525" fill="none"><g clip-path="url(#clip0_736_3126)"><path d="M583.398 303.067C583.398 303.067 779.619 117.06 810.154 55.0692C840.688 -6.92143 763.873 -3.2332 722.239 6.02284C680.605 15.2789 601.698 47.7637 638.97 84.6814C656.915 105.038 665.603 111.279 675.994 127.238C680.64 144.828 674.15 162.383 669.504 168.872C664.894 175.362 583.434 303.067 583.434 303.067H583.398Z" fill="#C92723"></path><path d="M572.368 76.8085L651.949 164.759L568.68 241.538L490.021 157.347L572.368 76.8085Z" fill="#F8B600"></path><path d="M1650.96 150.431C1652.74 150.431 1654.51 150.431 1656.28 150.431C1656.5 150.431 1656.67 150.502 1656.89 150.502C1658.98 150.68 1661.11 150.786 1663.16 151.07C1666.89 151.531 1670.54 152.382 1674.12 153.481C1678.87 154.935 1683.41 156.886 1687.74 159.333C1693.49 162.595 1698.7 166.567 1703.34 171.284C1706.39 174.405 1709.16 177.738 1711.57 181.356C1715.01 186.462 1717.71 191.924 1719.69 197.74C1722 204.478 1723.2 211.429 1723.38 218.557C1723.49 222.033 1723.27 225.508 1722.85 228.983C1722.42 232.211 1721.79 235.402 1720.93 238.559C1719.37 244.304 1717.1 249.765 1714.12 254.908C1711.43 259.624 1708.2 263.951 1704.48 267.923C1701.93 270.618 1699.19 273.1 1696.29 275.406C1692.74 278.172 1688.95 280.548 1684.94 282.605C1679.73 285.229 1674.26 287.215 1668.55 288.421C1665.97 288.953 1663.34 289.343 1660.72 289.697C1659.23 289.91 1657.7 289.91 1656.18 289.981C1652.38 290.194 1648.55 289.981 1644.79 289.52C1641.78 289.166 1638.8 288.563 1635.86 287.782C1629.37 286.08 1623.27 283.491 1617.56 280.016C1613.94 277.817 1610.54 275.335 1607.38 272.498C1604.26 269.731 1601.39 266.681 1598.8 263.419C1594.36 257.78 1590.85 251.574 1588.3 244.871C1586.74 240.722 1585.53 236.466 1584.82 232.104C1584.43 229.764 1584.26 227.388 1584.01 225.047C1583.94 224.338 1583.9 223.628 1583.83 222.955C1583.83 221.181 1583.83 219.408 1583.83 217.635C1583.83 217.422 1583.9 217.245 1583.9 217.032C1584.01 214.408 1584.29 211.819 1584.68 209.266C1585.32 205.258 1586.31 201.322 1587.63 197.492C1589.04 193.378 1590.85 189.441 1593.02 185.682C1595.36 181.604 1598.09 177.774 1601.21 174.263C1604.08 171 1607.2 168.057 1610.61 165.362C1613.44 163.127 1616.46 161.106 1619.65 159.333C1623.48 157.205 1627.49 155.396 1631.67 154.013C1635.08 152.878 1638.55 151.956 1642.13 151.424C1644.33 151.105 1646.57 150.892 1648.8 150.644C1649.55 150.573 1650.25 150.538 1651 150.467L1650.96 150.431ZM1594.54 220.188C1594.54 252.886 1620.93 279.236 1653.52 279.271C1686.07 279.342 1712.6 253.028 1712.67 220.259C1712.74 187.668 1686.39 161.177 1653.62 161.141C1621 161.141 1594.61 187.385 1594.54 220.153V220.188Z" fill="white"></path><path d="M1682.67 252.461H1682.1C1678.84 252.461 1675.61 252.461 1672.35 252.461C1671.99 252.461 1671.82 252.355 1671.64 252.071C1666.78 244.446 1661.92 236.857 1657.06 229.232C1656.85 228.913 1656.64 228.771 1656.25 228.771C1651.99 228.771 1647.7 228.771 1643.45 228.771H1642.84V252.39C1642.63 252.39 1642.49 252.39 1642.35 252.39C1639.08 252.39 1635.82 252.39 1632.56 252.39C1632.17 252.39 1632.03 252.284 1632.03 251.858C1632.03 230.686 1632.03 209.55 1632.03 188.378C1632.03 188.236 1632.03 188.094 1632.03 187.917C1632.17 187.917 1632.31 187.917 1632.42 187.917C1641.71 187.917 1651 187.917 1660.29 187.917C1663.73 187.917 1667.14 188.236 1670.4 189.513C1672.53 190.329 1674.69 191.073 1676.6 192.421C1677.85 193.272 1678.84 194.371 1679.83 195.471C1681.39 197.173 1682.53 199.124 1683.02 201.358C1683.52 203.486 1683.95 205.613 1684.02 207.812C1684.09 209.621 1683.87 211.429 1683.48 213.203C1683.17 214.621 1682.85 216.075 1682.31 217.423C1681.5 219.586 1679.97 221.253 1678.31 222.778C1675.68 225.154 1672.49 226.395 1669.16 227.282C1668.45 227.459 1667.74 227.636 1666.96 227.849C1672.17 236.006 1677.31 244.127 1682.56 252.355L1682.67 252.461ZM1642.91 219.693C1642.91 219.693 1643.16 219.693 1643.23 219.693C1648.59 219.693 1653.94 219.693 1659.3 219.693C1660.36 219.693 1661.46 219.48 1662.53 219.231C1663.77 218.948 1665.01 218.487 1666.21 218.097C1667.17 217.813 1668.13 217.529 1668.94 216.891C1670.58 215.614 1671.99 214.16 1672.7 212.139C1673.52 209.798 1673.59 207.387 1673.16 204.975C1672.88 203.308 1672.14 201.748 1670.79 200.648C1669.62 199.726 1668.41 198.911 1667.14 198.201C1666.36 197.74 1665.43 197.492 1664.55 197.244C1663.91 197.067 1663.23 197.067 1662.6 196.996C1661.25 196.854 1659.87 196.57 1658.52 196.535C1653.48 196.464 1648.41 196.535 1643.37 196.535C1643.23 196.535 1643.09 196.535 1642.91 196.535V219.657V219.693Z" fill="white"></path><path d="M190.672 511.453C184.962 514.113 176.061 516.843 164.003 519.645C158.116 520.886 151.697 521.986 144.675 522.908C137.653 523.83 129.745 524.539 120.95 525C83.9613 524.539 54.7746 513.297 33.4609 491.274C11.7216 469.889 0.727865 440.916 0.408691 404.317C0.727865 366.938 12.5373 336.758 35.8724 313.813C59.0303 290.691 90.5576 278.988 130.525 278.669C157.903 279.307 178.295 283.527 191.665 291.365L181.628 323.601C176.557 320.268 169.89 317.644 161.556 315.728C152.903 313.494 142.547 312.395 130.49 312.395C102.757 312.714 81.5498 321.332 66.8678 338.212C52.1858 355.59 44.8448 376.903 44.8448 402.225C45.164 430.099 53.1788 451.697 68.8183 466.981C84.6351 482.905 104.708 490.884 129 490.884C141.413 490.884 152.087 489.607 161.06 487.054C170.032 484.678 177.373 482.195 183.083 479.642L190.672 511.488V511.453Z" fill="white"></path><path d="M269.188 240.367C260.713 240.367 254.152 237.459 249.577 231.643C244.186 226.466 241.491 220.189 241.491 212.812C241.491 204.797 244.186 198.378 249.577 193.52C254.471 188.342 261.315 185.753 270.146 185.753C278.976 185.753 285.644 188.342 290.715 193.52C295.609 198.378 298.056 204.833 298.056 212.812C298.056 220.189 295.609 226.466 290.715 231.643C285.644 237.459 278.622 240.367 269.649 240.367H269.153H269.188ZM248.123 519.538V284.13H292.027V519.574H248.123V519.538Z" fill="white"></path><path d="M367.566 347.646C367.566 323.779 366.857 302.607 365.438 284.095H404.59L407.037 322.396H408.03C414.059 310.728 423.918 300.55 437.642 291.897C451.331 283.386 468.212 278.953 488.284 278.634C497.257 278.634 506.619 279.981 516.407 282.677C526.018 285.833 535.168 290.975 543.821 298.103C552.616 305.232 559.815 315.445 565.347 328.744C571.057 341.724 573.894 358.427 573.894 378.854V519.503H529.99V383.535C529.99 363.995 525.982 347.433 517.968 333.744C509.314 320.41 494.562 313.601 473.815 313.246C459.736 313.565 447.466 317.786 437.004 325.871C426.365 333.957 418.846 344.383 414.449 357.08C412.498 362.966 411.505 369.634 411.505 377.081V519.503H367.601V347.611L367.566 347.646Z" fill="white"></path><path d="M653.191 347.646C653.191 323.779 652.482 302.607 651.063 284.095H690.215L692.662 322.396H693.655C699.684 310.728 709.543 300.55 723.268 291.897C736.957 283.386 753.837 278.953 773.91 278.634C782.882 278.634 792.245 279.981 802.033 282.677C811.643 285.833 820.793 290.975 829.446 298.103C838.241 305.232 845.44 315.445 850.973 328.744C856.682 341.724 859.519 358.427 859.519 378.854V519.503H815.615V383.535C815.615 363.995 811.608 347.433 803.593 333.744C794.904 320.41 780.187 313.601 759.441 313.246C745.362 313.565 733.091 317.786 722.629 325.871C711.99 333.957 704.472 344.383 700.074 357.08C698.124 362.966 697.131 369.634 697.131 377.081V519.503H653.227V347.611L653.191 347.646Z" fill="white"></path><path d="M1037.33 525C1003.89 524.539 976.514 513.439 955.129 491.735C932.787 470.351 921.438 441.058 921.119 403.821C921.438 363.924 933.283 333.106 956.583 311.402C978.925 289.557 1007.15 278.634 1041.23 278.634C1076.63 278.953 1104.86 290.053 1125.89 311.899C1146.92 333.603 1157.63 362.754 1157.95 399.317C1157.31 442.866 1144.65 474.713 1120 494.821C1095.53 514.929 1068.12 525 1037.76 525H1037.26H1037.33ZM1038.82 493.189C1060.21 492.87 1077.94 484.111 1092.02 466.946C1105.42 450.243 1112.27 428.22 1112.59 400.877C1112.59 379.422 1107.13 359.207 1096.17 340.27C1084.75 321.19 1065.95 311.26 1039.82 310.445C1014.5 311.225 995.77 320.871 983.713 339.312C971.62 357.931 965.591 378.925 965.591 402.296C965.591 428.681 972.435 450.243 986.16 466.946C999.565 484.111 1016.94 492.87 1038.36 493.189H1038.86H1038.82Z" fill="white"></path><path d="M1233.45 284.13L1281.11 415.984C1289.09 437.369 1295.62 457.654 1300.65 476.804H1302.11C1307.64 457.654 1314.48 437.369 1322.64 415.984L1369.56 284.13H1415.77L1320.44 519.574H1278.42L1186.49 284.13H1233.41H1233.45Z" fill="white"></path><path d="M1627.17 463.151C1627.17 484.323 1628.37 503.119 1630.79 519.539H1591.1L1587.17 490.068H1585.71C1579.33 499.36 1569.79 507.375 1557.06 514.148C1544.32 520.922 1529.15 524.539 1511.49 525C1486.66 524.22 1468.22 517.021 1456.13 503.403C1443.54 490.104 1437.26 474.783 1437.26 457.406C1437.9 399.387 1486.59 370.201 1583.23 369.882V365.094C1583.23 359.81 1582.91 353.923 1582.24 347.362C1580.78 341.121 1578.23 335.234 1574.65 329.63C1571.21 323.708 1565.67 318.849 1557.98 315.019C1550.64 311.331 1540.57 309.664 1527.83 309.983C1503.83 310.303 1482.58 316.225 1464.11 327.715L1454.07 298.919C1475.45 285.726 1502.19 278.988 1534.36 278.669C1553.12 278.669 1568.62 281.293 1580.85 286.542C1592.95 292.11 1602.31 299.557 1609.01 308.919C1616.03 318.14 1620.86 328.354 1623.44 339.631C1625.89 351.05 1627.1 362.966 1627.1 375.343V463.187L1627.17 463.151ZM1584.26 399.317C1572.16 398.678 1560.21 398.997 1548.44 400.274C1536.49 401.551 1525.28 404.175 1514.82 408.147C1505.17 412.119 1497.16 417.545 1490.77 424.389C1484.39 431.553 1481.2 440.951 1481.2 452.583C1481.2 466.591 1485.38 476.876 1493.72 483.401C1501.41 490.246 1510.99 493.686 1522.44 493.686C1538.79 493.686 1552.06 489.465 1562.2 481.025C1572.16 473.223 1578.87 464.322 1582.31 454.285C1583.62 449.675 1584.26 445.029 1584.26 440.419V399.317Z" fill="white"></path></g><defs><clipPath id="clip0_736_3126"><rect width="1723.04" height="524.19" fill="white" transform="translate(0.408691 0.810059)"></rect></clipPath></defs></svg>